<?xml version="1.0" encoding="UTF-8"?>
<svg version="1.1" xmlns="http://www.w3.org/2000/svg" width="944" height="775">
<path d="M0 0 C311.52 0 623.04 0 944 0 C944 255.75 944 511.5 944 775 C632.48 775 320.96 775 0 775 C0 519.25 0 263.5 0 0 Z " fill="#1F2020" transform="translate(0,0)"/>
<path d="M0 0 C34.37724487 0.10562721 68.75447295 0.21561489 103.13168604 0.33111694 C107.22898526 0.34487964 111.32628458 0.35860777 115.42358398 0.37231445 C116.23897395 0.37504276 117.05436393 0.37777106 117.89446268 0.38058204 C130.94149625 0.42415591 143.98853699 0.46495564 157.03558286 0.50465261 C170.51354596 0.54572538 183.99149627 0.58995855 197.46944028 0.63687855 C205.00162203 0.66301578 212.53380259 0.68787384 220.06599998 0.70907402 C259.71853913 0.82156347 299.35422723 1.23884323 339 2 C339.16462227 3.4378802 339.32786732 4.87591813 339.49053192 6.31402111 C339.6271144 7.51520636 339.6271144 7.51520636 339.76645613 8.74065799 C340.03788769 11.36653175 340.1513417 13.9654439 340.18945312 16.60473633 C340.20617065 17.60640335 340.22288818 18.60807037 340.2401123 19.64009094 C340.26047546 21.22010139 340.26047546 21.22010139 340.28125 22.83203125 C340.29965942 23.94503098 340.31806885 25.0580307 340.33703613 26.20475769 C340.3953755 29.74062181 340.44833774 33.27653243 340.5 36.8125 C340.56828203 41.46493114 340.64199721 46.11723302 340.71875 50.76953125 C340.73911316 52.34043266 340.73911316 52.34043266 340.7598877 53.94306946 C340.8616873 60.10019785 341.1998857 66.19075089 341.76443481 72.32318115 C342.1197838 76.3611499 342.29687681 80.38574734 342.375 84.4375 C342.41238281 85.19998047 342.44976563 85.96246094 342.48828125 86.74804688 C342.55016574 90.70521601 342.45216179 92.43032723 339.92578125 95.61328125 C338.96027344 96.40089844 337.99476563 97.18851562 337 98 C335.85356442 99.07055858 334.71470286 100.14926429 333.58203125 101.234375 C332.32654466 102.4073468 331.06999384 103.57918034 329.8125 104.75 C329.14686035 105.37124756 328.4812207 105.99249512 327.79541016 106.63256836 C324.19298193 109.98701913 320.56124011 113.29996565 316.875 116.5625 C312.90370182 120.11611574 309.0886587 123.8041381 305.3125 127.5625 C304.78962402 128.08078369 304.26674805 128.59906738 303.72802734 129.13305664 C300.98035397 131.89153402 298.36035112 134.715147 295.82815552 137.67304993 C291.92394545 142.14996165 287.78276257 146.35087424 283.57373047 150.53979492 C282.76143982 151.3522316 281.94914917 152.16466827 281.11224365 153.00172424 C278.44959066 155.66368547 275.78342108 158.32209428 273.1171875 160.98046875 C271.25565044 162.84013816 269.39433595 164.70003039 267.53323364 166.56013489 C263.1463093 170.94396384 258.7568462 175.32524142 254.36643803 179.70558101 C249.38439404 184.67644518 244.40518835 189.65014823 239.42622542 194.62409818 C230.91138087 203.13027555 222.39444544 211.63435562 213.87509155 220.13601685 C209.51370358 224.48840275 209.51370358 224.48840275 205.15576172 228.84423828 C202.61227308 231.38772692 200.05997493 233.92224693 197.5078125 236.45703125 C195.92261789 238.0348401 194.33791034 239.61313633 192.75341797 241.19165039 C191.67228983 242.26775379 190.59026533 243.34295744 189.50732422 244.41723633 C183.96387148 249.91768388 178.48838975 255.42226034 173.41357422 261.3659668 C171.54763508 263.5229151 169.54629205 265.51479129 167.5 267.5 C164.75499458 270.20803565 162.1272909 272.94169249 159.625 275.875 C156.29888693 279.75804363 152.69713469 283.33267718 149.06054688 286.91992188 C145.75176128 290.20124867 142.6321082 293.58382952 139.6328125 297.1484375 C136.93969783 300.20235222 134.0066347 303.01149819 131.10253906 305.86328125 C128.91887698 308.00934654 126.74065102 310.16084257 124.5625 312.3125 C123.82451172 313.03373047 123.08652344 313.75496094 122.32617188 314.49804688 C118.29068458 318.49766317 114.70364198 322.53907935 111.37866211 327.14477539 C109.27312781 329.97813029 106.91382991 332.48566721 104.5 335.0625 C101.53044648 338.24160464 98.6068721 341.42436812 95.875 344.8125 C92.4939386 348.82627465 88.37629568 352.12039744 84 355 C83.34 355 82.68 355 82 355 C82 355.66 82 356.32 82 357 C80.33436871 357.91854666 78.66743141 358.83472515 77 359.75 C76.071875 360.26046875 75.14375 360.7709375 74.1875 361.296875 C72.53259906 362.18111129 70.86846144 363.05667049 69.14526367 363.79907227 C63.00861337 366.51998981 58.91129926 370.62499425 54.3125 375.4375 C53.57966797 376.18837891 52.84683594 376.93925781 52.09179688 377.71289062 C50.67039563 379.17017936 49.25285602 380.63124672 47.83959961 382.09643555 C45.587917 384.42641156 43.29461647 386.71231591 41 389 C39.4747311 390.5476556 37.95006006 392.09590051 36.42578125 393.64453125 C34.72148124 395.36731322 33.01705072 397.08996608 31.3125 398.8125 C30.0121582 400.13797852 30.0121582 400.13797852 28.68554688 401.49023438 C27.85732422 402.32490234 27.02910156 403.15957031 26.17578125 404.01953125 C25.42208252 404.78370361 24.66838379 405.54787598 23.8918457 406.33520508 C22 408 22 408 20 408 C19.70802734 408.80244141 19.70802734 408.80244141 19.41015625 409.62109375 C17.35301725 413.09144735 14.45099687 415.41879715 11.4375 418.0625 C6.82100072 421.86630037 6.82100072 421.86630037 4 427 C3.34 427 2.68 427 2 427 C1.83621668 412.40499905 1.71291176 397.81012031 1.6373148 383.21438599 C1.60127486 376.43671889 1.55217269 369.65962396 1.47192383 362.88232422 C1.39449562 356.34009967 1.35399224 349.79824588 1.3358593 343.25558472 C1.32293943 340.76128797 1.29770935 338.26702321 1.2598896 335.77297974 C1.20896293 332.27502584 1.20208125 328.77951582 1.20532227 325.28125 C1.18015533 324.25337875 1.1549884 323.22550751 1.12905884 322.16648865 C1.19396801 315.67873009 2.48223621 312.29064122 7.10412121 307.69277382 C9.66891112 305.40274915 12.23122969 303.15602513 14.91650391 301.0065918 C23.23874377 294.16266838 30.74369006 286.52645007 38.3359375 278.89453125 C39.86963875 277.35963427 41.40371385 275.82511077 42.93814087 274.29093933 C46.12968071 271.09784741 49.31787115 267.90146317 52.50341797 264.70239258 C56.56978187 260.61897572 60.64276189 256.54223701 64.71803856 252.46771717 C67.87716572 249.30831722 71.03367376 246.14631148 74.18931961 242.98343468 C75.69012181 241.47947079 77.19151235 239.97609377 78.69352341 238.47333717 C80.79348128 236.37119263 82.89010471 234.26577725 84.98583984 232.15942383 C85.89928162 231.24666183 85.89928162 231.24666183 86.83117676 230.31546021 C90.5271815 226.59226905 94.02654397 222.74701502 97.43763161 218.76075268 C99.6197429 216.30156423 102.02238252 214.15698463 104.5 212 C108.44270176 208.48760675 111.94445694 204.89090289 115.33203125 200.8515625 C117.06109668 198.93217839 118.88747434 197.33531106 120.875 195.6875 C124.15896969 192.92138707 126.72992003 189.94335925 129.375 186.5625 C133.03802355 181.93485924 136.90045754 178.56570481 141.59375 175.03125 C144.94752315 172.20014279 147.3667516 168.85723179 150.00390625 165.37109375 C152.00653067 162.99224243 153.99122653 161.3226132 156.5 159.5 C159.7790325 157.10314376 162.12987737 154.75062541 164.5625 151.5 C169.95018675 144.41036794 176.66695807 138.66997664 183.20166016 132.66796875 C186.56890805 129.54483033 189.78725321 126.28014707 193 123 C193.7528125 122.25492187 194.505625 121.50984375 195.28125 120.7421875 C202.64841717 113.31151027 209.72160373 105.56308011 216.75 97.8125 C217.34296875 97.15894531 217.9359375 96.50539063 218.546875 95.83203125 C220.02075272 93.97383595 221.02483555 92.15587827 222 90 C222.66 90 223.32 90 224 90 C224 88.02 224 86.04 224 84 C222.68 84 221.36 84 220 84 C220 83.34 220 82.68 220 82 C148.72 82 77.44 82 4 82 C1.75022282 73.00089127 1.75022282 73.00089127 1.69702148 68.55981445 C1.68037949 67.56710037 1.66373749 66.57438629 1.64659119 65.55158997 C1.63817703 64.49944809 1.62976288 63.44730621 1.62109375 62.36328125 C1.60409927 61.24801559 1.5871048 60.13274994 1.56959534 58.98368835 C1.51675003 55.42668288 1.47640933 51.86968284 1.4375 48.3125 C1.39298688 44.8018012 1.34564873 41.29117464 1.29469299 37.78056335 C1.26375777 35.60533613 1.23659757 33.43004954 1.21446228 31.25471497 C1.1221114 24.17810023 0.83614707 17.12314934 0.489151 10.05485535 C0.44223885 9.08538766 0.3953267 8.11591998 0.34699297 7.11707449 C0.23208556 4.74467849 0.11640265 2.37232303 0 0 Z " fill="#F9FAF6" transform="translate(203,192)"/>
<path d="M0 0 C1.63366263 1.63366263 1.12603354 3.46976712 1.12698364 5.72471619 C1.1298063 6.75373487 1.13262896 7.78275356 1.13553715 8.84295464 C1.13351008 9.98782404 1.13148302 11.13269344 1.12939453 12.31225586 C1.13112136 13.51848665 1.13284819 14.72471745 1.13462734 15.96750069 C1.1382589 19.33516327 1.13728034 22.70276677 1.13421178 26.07042623 C1.13232507 28.96184448 1.13398257 31.85325633 1.13566166 34.74467438 C1.14068944 43.47209177 1.13591454 52.19948807 1.12877274 60.92690277 C1.12476274 65.92093378 1.12291725 70.91496431 1.12130737 75.90899658 C1.10228002 128.19277486 0.91686983 180.47551037 0.60972524 232.75836593 C0.57793267 238.1767162 0.54738893 243.59507153 0.51790267 249.01343483 C0.46658308 258.44022096 0.40991587 267.86695544 0.34718513 277.29367256 C0.32641737 280.43556467 0.3077188 283.57745807 0.29089165 286.7193737 C0.27133539 290.34562818 0.24721903 293.97182347 0.21950126 297.59802449 C0.20583211 299.52904941 0.19676851 301.46010525 0.18788338 303.3911581 C0.11745139 311.71533137 -0.2785381 319.07842131 -3 327 C-3.67428198 329.96525077 -4.23388299 332.95230736 -4.8125 335.9375 C-6.54586165 344.5714922 -8.98314317 352.72837206 -12 361 C-12.66 361 -13.32 361 -14 361 C-14.3403125 362.20462891 -14.3403125 362.20462891 -14.6875 363.43359375 C-25.33639426 392.36942846 -49.36385467 413.91621826 -74.890625 429.625 C-77.09816799 430.96068024 -77.09816799 430.96068024 -79 433 C-81.32275177 433.40047444 -83.65739357 433.7397104 -86 434 C-86 434.66 -86 435.32 -86 436 C-118.12623918 447.51625047 -118.12623918 447.51625047 -130 447 C-130 447.66 -130 448.32 -130 449 C-247.15 449 -364.3 449 -485 449 C-482.62922744 446.62922744 -480.84798461 445.14300785 -478.0625 443.4375 C-477.39347656 443.02371094 -476.72445312 442.60992188 -476.03515625 442.18359375 C-474.05909178 441.03436624 -472.05592396 439.998066 -470 439 C-470 438.34 -470 437.68 -470 437 C-468.33402887 435.69407391 -466.61362861 434.45750708 -464.875 433.25 C-454.92945424 426.09059109 -446.41965489 417.0565768 -438.51171875 407.734375 C-435.83555138 404.66404344 -432.90693386 401.84930741 -430 399 C-429.22527344 398.22269531 -428.45054687 397.44539063 -427.65234375 396.64453125 C-425.84033377 394.83785856 -424.01131074 393.0481309 -422.16796875 391.2734375 C-417.14065299 386.40246766 -412.6204389 381.71295619 -408.6875 375.875 C-406.33477307 372.51258122 -405.3848637 371.18530475 -401.625 369.375 C-400.42875 369.25125 -399.2325 369.1275 -398 369 C-397.27655635 368.91712268 -396.55311271 368.83424536 -395.80774653 368.7488566 C-389.87164777 368.09760239 -384.03439652 367.85966477 -378.06576538 367.87974548 C-377.11800409 367.87889106 -376.1702428 367.87803663 -375.19376147 367.87715632 C-372.04630948 367.87552092 -368.89891185 367.88099086 -365.75146484 367.88647461 C-363.4840088 367.88675693 -361.21655267 367.88659788 -358.94909668 367.8860321 C-352.81351284 367.88574587 -346.67794865 367.89161454 -340.54236937 367.89860606 C-334.12286193 367.9048685 -327.70335401 367.90544569 -321.28384399 367.90663147 C-310.51555986 367.90938378 -299.7472843 367.91562479 -288.97900391 367.92456055 C-277.89176469 367.93375136 -266.80452742 367.94082402 -255.71728516 367.94506836 C-254.69071253 367.94546244 -254.69071253 367.94546244 -253.64340107 367.94586449 C-250.20977104 367.94716961 -246.77614099 367.9484333 -243.34251094 367.94967639 C-214.89500235 367.96002893 -186.44750156 367.97770444 -158 368 C-158 367.34 -158 366.68 -158 366 C-154.89688362 365.32838005 -151.79234832 364.66356325 -148.6875 364 C-147.36588867 363.71382812 -147.36588867 363.71382812 -146.01757812 363.421875 C-145.17001953 363.24140625 -144.32246094 363.0609375 -143.44921875 362.875 C-142.66893311 362.70742188 -141.88864746 362.53984375 -141.0847168 362.3671875 C-139 362 -139 362 -136 362 C-136 361.34 -136 360.68 -136 360 C-132.38026598 358.68373308 -129.90432869 358 -126 358 C-126 357.34 -126 356.68 -126 356 C-124.30961298 354.95531036 -122.56894455 353.99184776 -120.8125 353.0625 C-103.48642109 343.14439123 -91.48177468 328.54178942 -84 310 C-83.505 308.845 -83.01 307.69 -82.5 306.5 C-80.1587883 300.2567688 -79.20066011 293.53976569 -78 287 C-77.34 287 -76.68 287 -76 287 C-76 192.62 -76 98.24 -76 1 C-23 0 -23 0 0 0 Z " fill="#F1F4EF" transform="translate(696,197)"/>
<path d="M0 0 C9.88822536 5.24536686 16.83412933 11.80742466 21.046875 22.3203125 C21.6171875 24.28125 21.6171875 24.28125 22.1796875 28.15625 C22.33630859 29.19845703 22.33630859 29.19845703 22.49609375 30.26171875 C23.07791273 37.25592567 20.40474768 42.69822616 16.1796875 48.15625 C7.64985213 55.98123903 -1.07639767 61.89673972 -12.8203125 61.65625 C-13.57570313 61.67171875 -14.33109375 61.6871875 -15.109375 61.703125 C-23.61662786 61.64465591 -29.68886058 57.88782462 -35.8203125 52.15625 C-37.90803185 49.88987496 -39.88524898 47.55367382 -41.8203125 45.15625 C-42.4390625 44.393125 -43.0578125 43.63 -43.6953125 42.84375 C-44.8203125 41.15625 -44.8203125 41.15625 -44.8203125 39.15625 C-45.4803125 39.15625 -46.1403125 39.15625 -46.8203125 39.15625 C-49.63772905 34.3215632 -49.411958 29.60678418 -48.8203125 24.15625 C-45.30714176 11.52081206 -35.55601025 5.37095205 -24.8203125 -0.84375 C-17.5384258 -3.27104557 -7.14379131 -2.91143193 0 0 Z " fill="#F7FAFA" transform="translate(673.8203125,87.84375)"/>
<path d="M0 0 C0.33 0 0.66 0 1 0 C1.10491926 73.36363552 1.14634406 146.72858745 0.74957985 220.09146458 C0.74527727 220.887097 0.7409747 221.68272943 0.73654175 222.50247192 C0.73224657 223.29445888 0.72795139 224.08644583 0.72352606 224.90243238 C0.69408266 230.46154138 0.67229841 236.02064809 0.65383911 241.57980347 C0.63117618 248.3602384 0.59803401 255.1405235 0.55139875 261.92083764 C0.52790596 265.36840474 0.5087865 268.81583248 0.50236893 272.26347733 C0.43808429 297.26085995 0.43808429 297.26085995 -2.31291199 307.40745544 C-3.00830377 310.03133209 -3.29587473 312.48524413 -3.5 315.1875 C-4.01592226 319.12140727 -4.20717426 319.60084384 -7 322 C-5.14545455 303.14545455 -5.14545455 303.14545455 -3 301 C-1.886606 294.30804598 -1.83334267 287.68625698 -1.80381775 280.91455078 C-1.79028545 279.10957642 -1.79028545 279.10957642 -1.77647978 277.26813793 C-1.75251636 273.94555511 -1.73277517 270.62299661 -1.7148484 267.30037904 C-1.69444138 263.71082398 -1.66854469 260.12130795 -1.64332581 256.53178406 C-1.60041909 250.31845793 -1.56096519 244.10511764 -1.5238781 237.89175415 C-1.47025183 228.90835154 -1.41138459 219.92498923 -1.35125155 210.9416281 C-1.25382369 196.36556771 -1.16061525 181.78948354 -1.07006836 167.21337891 C-0.98211844 153.05678849 -0.89217631 138.90021304 -0.79956055 124.74365234 C-0.79384928 123.87056443 -0.78813801 122.99747651 -0.78225368 122.09793139 C-0.75358872 117.71776337 -0.72488466 113.33759561 -0.69616115 108.95742798 C-0.45804458 72.63832317 -0.22677913 36.31917729 0 0 Z " fill="#3A3D3C" transform="translate(697,217)"/>
<path d="M0 0 C0.99 0.33 1.98 0.66 3 1 C2.09121094 1.80050781 2.09121094 1.80050781 1.1640625 2.6171875 C-5.11676122 8.2022892 -11.10287686 14.01367668 -17 20 C-17.721875 20.72058594 -18.44375 21.44117188 -19.1875 22.18359375 C-21.66066322 24.66019192 -24.11878932 27.1503851 -26.57421875 29.64453125 C-28.27851876 31.36731322 -29.98294928 33.08996608 -31.6875 34.8125 C-32.55439453 35.69615234 -33.42128906 36.57980469 -34.31445312 37.49023438 C-35.14267578 38.32490234 -35.97089844 39.15957031 -36.82421875 40.01953125 C-37.57791748 40.78370361 -38.33161621 41.54787598 -39.1081543 42.33520508 C-41 44 -41 44 -43 44 C-43.226875 44.5775 -43.45375 45.155 -43.6875 45.75 C-45.33038023 48.5663661 -47.39533227 50.08077114 -50 52 C-50 51.34 -50 50.68 -50 50 C-50.66 49.67 -51.32 49.34 -52 49 C-50.75 47.5 -50.75 47.5 -49 46 C-47.68 46 -46.36 46 -45 46 C-44.86658203 44.86691406 -44.86658203 44.86691406 -44.73046875 43.7109375 C-43.862365 40.48920486 -42.90626735 39.65060879 -40.3125 37.625 C-36.38068048 34.38579637 -33.22395369 30.92444625 -30 27 C-17.76284585 12.6284585 -17.76284585 12.6284585 -12 9 C-11.34 9 -10.68 9 -10 9 C-10 8.34 -10 7.68 -10 7 C-9.34 7 -8.68 7 -8 7 C-8 6.34 -8 5.68 -8 5 C-7.01 5 -6.02 5 -5 5 C-5 4.34 -5 3.68 -5 3 C-4.01 3 -3.02 3 -2 3 C-2 2.34 -2 1.68 -2 1 C-1.34 0.67 -0.68 0.34 0 0 Z " fill="#EAEFEC" transform="translate(266,556)"/>
<path d="M0 0 C0.495 1.485 0.495 1.485 1 3 C-3.59752946 7.67365721 -8.20682978 12.3354628 -12.82446289 16.98925781 C-14.3935999 18.57347176 -15.96003258 20.1603691 -17.52368164 21.75 C-19.77303058 24.03577853 -22.0319606 26.31169845 -24.29296875 28.5859375 C-24.98899704 29.29744965 -25.68502533 30.00896179 -26.40214539 30.74203491 C-32.44768208 36.78964621 -32.44768208 36.78964621 -37 38 C-32.75789864 32.93288701 -28.32282911 28.18776629 -23.6328125 23.53515625 C-22.95322479 22.85698349 -22.27363708 22.17881073 -21.57345581 21.48008728 C-19.42632998 19.33850859 -17.27573373 17.20045471 -15.125 15.0625 C-13.65862227 13.60114411 -12.1924742 12.13955774 -10.7265625 10.67773438 C-7.15369 7.11582065 -3.57770316 3.55706135 0 0 Z " fill="#DADEDE" transform="translate(275,437)"/>
<path d="M0 0 C0.33 0 0.66 0 1 0 C1.58261207 26.48942871 1.58261207 26.48942871 -1.27734375 37.2109375 C-1.97621168 39.90818995 -2.29313229 42.41459243 -2.5 45.1875 C-3.01592226 49.12140727 -3.20717426 49.60084384 -6 52 C-4.14545455 33.14545455 -4.14545455 33.14545455 -2 31 C-0.94295923 24.36021798 -0.69368753 17.71127333 -0.4375 11 C-0.37272461 9.40865234 -0.37272461 9.40865234 -0.30664062 7.78515625 C-0.20144004 5.19020849 -0.09929881 2.59517916 0 0 Z " fill="#363837" transform="translate(696,487)"/>
<path d="M0 0 C0.66 0.99 1.32 1.98 2 3 C-0.88340252 5.97066987 -3.78374606 8.92423077 -6.6875 11.875 C-7.91243164 13.13763672 -7.91243164 13.13763672 -9.16210938 14.42578125 C-10.35610352 15.63427734 -10.35610352 15.63427734 -11.57421875 16.8671875 C-12.30213623 17.61081543 -13.03005371 18.35444336 -13.7800293 19.12060547 C-16.10370562 21.08779565 -18.12823553 22.04200939 -21 23 C-16.72006745 17.81902902 -12.12717347 13.10075207 -7.34765625 8.37890625 C-4.70829758 5.70441468 -2.32647112 2.94686342 0 0 Z " fill="#CAD6D8" transform="translate(257,605)"/>
<path d="M0 0 C0.66 0.33 1.32 0.66 2 1 C-0.18101677 3.38102267 -2.37098779 5.75363725 -4.5625 8.125 C-5.17158203 8.79015625 -5.78066406 9.4553125 -6.40820312 10.140625 C-10.37816402 14.42566216 -14.49616894 18.27868785 -19 22 C-19.66 21.67 -20.32 21.34 -21 21 C-14.07 14.07 -7.14 7.14 0 0 Z " fill="#616260" transform="translate(522,305)"/>
<path d="M0 0 C0.99 0.33 1.98 0.66 3 1 C1.43910974 2.41844009 -0.1237889 3.83467025 -1.6875 5.25 C-2.55761719 6.03890625 -3.42773438 6.8278125 -4.32421875 7.640625 C-6.82420863 9.84499564 -9.37945728 11.94133941 -12 14 C-12 12.68 -12 11.36 -12 10 C-11.34 10 -10.68 10 -10 10 C-10 9.01 -10 8.02 -10 7 C-9.34 7 -8.68 7 -8 7 C-8 6.34 -8 5.68 -8 5 C-7.01 5 -6.02 5 -5 5 C-5 4.34 -5 3.68 -5 3 C-4.01 3 -3.02 3 -2 3 C-2 2.34 -2 1.68 -2 1 C-1.34 0.67 -0.68 0.34 0 0 Z " fill="#CDDEE1" transform="translate(266,556)"/>
<path d="M0 0 C-0.3125 1.9375 -0.3125 1.9375 -1 4 C-1.99 4.33 -2.98 4.66 -4 5 C-4.28875 5.598125 -4.5775 6.19625 -4.875 6.8125 C-6.35537318 9.69100341 -8.42278571 11.10099999 -11 13 C-11 12.34 -11 11.68 -11 11 C-11.66 10.67 -12.32 10.34 -13 10 C-11.75 8.5 -11.75 8.5 -10 7 C-8.68 7 -7.36 7 -6 7 C-5.8453125 5.824375 -5.8453125 5.824375 -5.6875 4.625 C-4.82572663 1.33459258 -3.53157582 0 0 0 Z " fill="#D8E3E4" transform="translate(227,595)"/>
<path d="M0 0 C0 4.91886814 -3.68826689 7.6051539 -7 11 C-9.27699716 13.08798002 -11.60502418 15.0449177 -14 17 C-14.66 16.67 -15.32 16.34 -16 16 C-10.72 10.72 -5.44 5.44 0 0 Z " fill="#CED4D4" transform="translate(237,475)"/>
<path d="M0 0 C0.66 0.33 1.32 0.66 2 1 C-2.32893185 6.18419194 -6.76564995 10.72706118 -12 15 C-12 10.39852874 -9.10228152 8.19311408 -6 5 C-4.05341967 3.24193983 -2.06456557 1.62215867 0 0 Z " fill="#CCD2D2" transform="translate(361,350)"/>
<path d="M0 0 C0.66 0.33 1.32 0.66 2 1 C-1.72346836 5.42094803 -5.29521038 9.57833482 -10 13 C-10 8.97698923 -8.67577112 7.95743123 -6 5 C-4.05056443 3.25501743 -2.04941287 1.63021478 0 0 Z " fill="#C7CCCC" transform="translate(343,368)"/>
<path d="M0 0 C0.66 0.33 1.32 0.66 2 1 C0.89718873 2.27200971 -0.20730769 3.54255853 -1.3125 4.8125 C-1.92738281 5.52019531 -2.54226563 6.22789062 -3.17578125 6.95703125 C-4.73334335 8.70136739 -6.32658875 10.36778041 -8 12 C-8.66 11.67 -9.32 11.34 -10 11 C-8.89718873 9.72799029 -7.79269231 8.45744147 -6.6875 7.1875 C-6.07261719 6.47980469 -5.45773437 5.77210938 -4.82421875 5.04296875 C-3.26665665 3.29863261 -1.67341125 1.63221959 0 0 Z " fill="#CDCFCF" transform="translate(305,406)"/>
<path d="M0 0 C0.33 0 0.66 0 1 0 C0.91308261 2.77236494 0.80622639 5.54147078 0.6875 8.3125 C0.66494141 9.09818359 0.64238281 9.88386719 0.61914062 10.69335938 C0.58369141 11.45068359 0.54824219 12.20800781 0.51171875 12.98828125 C0.48553467 13.68477783 0.45935059 14.38127441 0.43237305 15.09887695 C-0.11223768 17.49350359 -1.15829162 18.43272547 -3 20 C-2.33644956 13.25390382 -1.28134207 6.65551466 0 0 Z " fill="#787A79" transform="translate(693,519)"/>
<path d="M0 0 C0.66 0 1.32 0 2 0 C1.82374165 2.37948772 1.30280227 3.70225849 -0.40234375 5.37890625 C-1.90649092 6.62115486 -3.45129851 7.81376056 -5 9 C-5.33 8.01 -5.66 7.02 -6 6 C-4 4 -2 2 0 0 Z " fill="#E0EAE9" transform="translate(232,588)"/>
<path d="M0 0 C-1.38188453 3.21043882 -2.92421903 5.04936365 -5.625 7.25 C-6.57246094 8.03117187 -6.57246094 8.03117187 -7.5390625 8.828125 C-8.02117187 9.21484375 -8.50328125 9.6015625 -9 10 C-9 7 -9 7 -7.5390625 5.17578125 C-6.90742188 4.56089844 -6.27578125 3.94601562 -5.625 3.3125 C-4.68527344 2.37857422 -4.68527344 2.37857422 -3.7265625 1.42578125 C-2 0 -2 0 0 0 Z " fill="#C9CDCD" transform="translate(379,333)"/>
<path d="M0 0 C-0.66 0 -1.32 0 -2 0 C-2 0.66 -2 1.32 -2 2 C-3.96466413 3.06775224 -5.96855359 4.06553465 -8 5 C-8.66 4.67 -9.32 4.34 -10 4 C-9 1 -9 1 -6.6875 -0.25 C-3.90126985 -1.0275526 -2.66561622 -0.98726527 0 0 Z " fill="#B4C4C8" transform="translate(287,547)"/>
<path d="M0 0 C0.125 2.375 0.125 2.375 0 5 C-0.66 5.66 -1.32 6.32 -2 7 C-2.99 7 -3.98 7 -5 7 C-4.67 5.02 -4.34 3.04 -4 1 C-1 0 -1 0 0 0 Z " fill="#DAE6F3" transform="translate(422,298)"/>
<path d="M0 0 C0.66 0.33 1.32 0.66 2 1 C1.3503125 1.5878125 1.3503125 1.5878125 0.6875 2.1875 C-1.26366224 4.28319278 -2.59010162 6.51589333 -4 9 C-5.32 8.67 -6.64 8.34 -8 8 C-5.36 5.36 -2.72 2.72 0 0 Z " fill="#A3B9BF" transform="translate(266,596)"/>
<path d="M0 0 C0.66 0 1.32 0 2 0 C0.59155282 3.21524305 -1.10344786 5.32183868 -3.625 7.75 C-4.57246094 8.67039062 -4.57246094 8.67039062 -5.5390625 9.609375 C-6.02117187 10.06828125 -6.50328125 10.5271875 -7 11 C-7.66 10.67 -8.32 10.34 -9 10 C-7.5484451 8.32742645 -6.08855591 6.66208242 -4.625 5 C-3.81289063 4.071875 -3.00078125 3.14375 -2.1640625 2.1875 C-1.44992187 1.465625 -0.73578125 0.74375 0 0 Z " fill="#474847" transform="translate(409,418)"/>
<path d="M0 0 C-0.375 2.4375 -0.375 2.4375 -1 5 C-1.99 5.495 -1.99 5.495 -3 6 C-3.99 5.67 -4.98 5.34 -6 5 C-5.6875 3.0625 -5.6875 3.0625 -5 1 C-2 0 -2 0 0 0 Z " fill="#E4EFF8" transform="translate(350,372)"/>
<path d="M0 0 C0.33 0.99 0.66 1.98 1 3 C-1.64 5.31 -4.28 7.62 -7 10 C-7.66 9.67 -8.32 9.34 -9 9 C-6.03 6.03 -3.06 3.06 0 0 Z " fill="#CBCECE" transform="translate(275,437)"/>
<path d="M0 0 C0.66 0.33 1.32 0.66 2 1 C-0.87494471 4.98069267 -3.82117329 7.43571997 -8 10 C-6.34908222 5.70761377 -3.26245434 3.1206085 0 0 Z " fill="#546769" transform="translate(215,608)"/>
<path d="M0 0 C0.66 0.33 1.32 0.66 2 1 C1.07038578 2.15224028 0.1309875 3.29659176 -0.8125 4.4375 C-1.59560547 5.39462891 -1.59560547 5.39462891 -2.39453125 6.37109375 C-4 8 -4 8 -7 9 C-5.44499019 5.18315774 -2.96404505 2.80804268 0 0 Z " fill="#C2C4C4" transform="translate(213,497)"/>
<path d="M0 0 C-0.33 0.66 -0.66 1.32 -1 2 C-3.64 2 -6.28 2 -9 2 C-9 1.01 -9 0.02 -9 -1 C-5.79937313 -2.60031344 -3.27728194 -1.03173691 0 0 Z " fill="#53595A" transform="translate(217,646)"/>
<path d="M0 0 C-1.44077046 3.36179774 -3.24750021 5.59156268 -6 8 C-6.66 8 -7.32 8 -8 8 C-6.48291727 4.46014029 -4.24676932 0 0 0 Z " fill="#C0C5C6" transform="translate(322,391)"/>
<path d="M0 0 C-1.75 2 -1.75 2 -4 4 C-5.32 4 -6.64 4 -8 4 C-7.67 3.01 -7.34 2.02 -7 1 C-4.53721199 -0.231394 -2.7204945 -0.07159196 0 0 Z " fill="#AEBEC2" transform="translate(277,552)"/>
<path d="M0 0 C0.99 0 1.98 0 3 0 C3.33 1.32 3.66 2.64 4 4 C3.01 4.33 2.02 4.66 1 5 C0.34 4.67 -0.32 4.34 -1 4 C-0.67 2.68 -0.34 1.36 0 0 Z " fill="#E5EEF8" transform="translate(381,337)"/>
<path d="M0 0 C0.99 0.33 1.98 0.66 3 1 C0.03 3.475 0.03 3.475 -3 6 C-3.66 5.67 -4.32 5.34 -5 5 C-3.35 3.35 -1.7 1.7 0 0 Z " fill="#D2D5D6" transform="translate(243,469)"/>
</svg>
